Coordinates
version=1
nRows=32
nColumns=12
inDegrees=yes

Units are S.I. units (second, meters, Newtons, ...)
Angles are in degrees

endheader
time	SC_y	SC_z	SC_x	AC_y	AC_z	AC_x	GH_y	GH_z	GH_yy	EL_x	PS_y
       0.0              -30.57          38.47          84.05          45.83          8.709         -18.71         -160.0         -18.62          93.93          127.5          112.6
   0.04741              -30.56          38.46          84.04          45.83          8.707         -18.71         -160.0         -18.61          93.93          127.5          112.6
   0.09481              -30.56          38.46          84.03          45.84          8.704          -18.7         -159.9          -18.6          93.93          127.5          112.6
    0.1422              -30.56          38.46          84.02          45.84          8.702          -18.7         -159.9         -18.58          93.94          127.5          112.6
    0.1896              -30.56          38.46          84.01          45.85          8.699         -18.69         -159.9         -18.57          93.94          127.5          112.6
     0.237              -30.55          38.46          83.99          45.85          8.696         -18.69         -159.8         -18.56          93.95          127.5          112.6
    0.2844              -30.55          38.46          83.98          45.85          8.693         -18.68         -159.8         -18.54          93.95          127.5          112.7
    0.3318              -30.54          38.46          83.97          45.86           8.69         -18.67         -159.7         -18.52          93.96          127.5          112.7
    0.3792              -30.54          38.46          83.95          45.87          8.686         -18.67         -159.7          -18.5          93.97          127.4          112.7
    0.4267              -30.54          38.46          83.94          45.87          8.682         -18.66         -159.6         -18.48          93.97          127.4          112.7
    0.4741              -30.53          38.46          83.92          45.88          8.678         -18.65         -159.6         -18.46          93.98          127.4          112.7
    0.5215              -30.53          38.46           83.9          45.88          8.674         -18.64         -159.5         -18.44          93.99          127.4          112.7
    0.5689              -30.52          38.46          83.88          45.89          8.669         -18.63         -159.5         -18.42           94.0          127.4          112.7
    0.6163              -30.52          38.46          83.86           45.9          8.664         -18.62         -159.4         -18.39          94.01          127.4          112.7
    0.6637              -30.51          38.45          83.83          45.91          8.658         -18.61         -159.3         -18.36          94.02          127.4          112.7
    0.7111               -30.5          38.45          83.81          45.92          8.652          -18.6         -159.2         -18.33          94.03          127.3          112.7
    0.7585               -30.5          38.45          83.78          45.93          8.645         -18.59         -159.1          -18.3          94.04          127.3          112.7
    0.8059              -30.49          38.45          83.75          45.94          8.638         -18.58         -159.1         -18.26          94.05          127.3          112.7
    0.8533              -30.48          38.45          83.72          45.95           8.63         -18.56         -158.9         -18.22          94.06          127.3          112.7
    0.9007              -30.47          38.45          83.68          45.96          8.622         -18.55         -158.8         -18.17          94.08          127.2          112.7
    0.9481              -30.46          38.44          83.64          45.98          8.612         -18.53         -158.7         -18.13           94.1          127.2          112.7
    0.9955              -30.45          38.44           83.6          45.99          8.602         -18.51         -158.6         -18.07          94.11          127.2          112.7
     1.043              -30.43          38.44          83.55          46.01           8.59         -18.49         -158.4         -18.01          94.13          127.2          112.7
      1.09              -30.42          38.44          83.49          46.03          8.578         -18.46         -158.3         -17.95          94.16          127.1          112.7
     1.138               -30.4          38.43          83.43          46.05          8.564         -18.43         -158.1         -17.88          94.18          127.1          112.7
     1.185              -30.39          38.43          83.37          46.08          8.548          -18.4         -157.9         -17.79          94.21          127.0          112.7
     1.233              -30.37          38.43          83.29           46.1           8.53         -18.37         -157.6          -17.7          94.24          127.0          112.7
      1.28              -30.35          38.42          83.21          46.13           8.51         -18.33         -157.4          -17.6          94.27          126.9          112.7
     1.327              -30.32          38.42          83.11          46.17          8.488         -18.29         -157.1         -17.49          94.31          126.8          112.7
     1.375              -30.29          38.41           83.0          46.21          8.462         -18.24         -156.7         -17.36          94.36          126.8          112.7
     1.422              -30.26           38.4          82.88          46.25          8.433         -18.19         -156.3         -17.21          94.41          126.7          112.8
      1.47              -30.22           38.4          82.74           46.3            8.4         -18.12         -155.9         -17.03          94.47          126.6          112.8
